<svg xmlns="http://www.w3.org/2000/svg" viewBox="380 190 494 860" role="img" aria-label="VeilHub symbol">
  <path d="M425 214C420 214 416 218 416 224V463C416 533 438 610 470 698C502 786 533 870 574 959C587 988 602 1011 620 1027C625 1031 631 1027 627 1021C606 988 597 940 592 891C581 781 568 671 552 561C542 491 532 416 509 350C491 298 466 247 425 214Z" fill="#0C8918"/>
  <path d="M829 214C834 214 838 218 838 224V463C838 533 816 610 784 698C752 786 721 870 680 959C667 988 652 1011 634 1027C629 1031 623 1027 627 1021C648 988 657 940 662 891C673 781 686 671 702 561C712 491 722 416 745 350C763 298 788 247 829 214Z" fill="#0C8918"/>
  <line x1="627" y1="426" x2="627" y2="679" stroke="#D67A0B" stroke-width="7" stroke-linecap="round"/>
</svg>
